inDegrees=no
DataType=double
version=3
OpenSimVersion=4.4-2022-10-11-798caa840
endheader
time	elv_angle	shoulder_elv	shoulder_rot	elbow_flexion	pro_sup	deviation	flexion
3.603127715030408	0.8552113334772214	1.204277183876087	0.4188790204786391	1.374958557120641	0	0	0
3.607298001737619	0.8552113334772214	1.204277183876087	0.4188790204786391	1.375640918687451	0	0	0
3.611468288444831	0.8552113334772214	1.204277183876087	0.4188790204786391	1.37632328025426	0	0	0
3.615638575152042	0.8552113334772214	1.204277183876087	0.4188790204786391	1.377005641821069	0	0	0
3.619808861859253	0.8552113334772214	1.204277183876087	0.4188790204786391	1.377688003387878	0	0	0
3.623979148566464	0.8552113334772214	1.204277183876087	0.4188790204786391	1.378370364954688	0	0	0
3.628149435273675	0.8552113334772214	1.204277183876087	0.4188790204786391	1.379052726521497	0	0	0
3.632319721980886	0.8552113334772214	1.204277183876087	0.4188790204786391	1.379735088088306	0	0	0
3.636490008688098	0.8552113334772214	1.204277183876087	0.4188790204786391	1.380417449655115	0	0	0
3.640660295395309	0.8552113334772214	1.204277183876087	0.4188790204786391	1.381099811221925	0	0	0
3.64483058210252	0.8552113334772214	1.204277183876087	0.4188790204786391	1.381782172788734	0	0	0
3.649000868809731	0.8552113334772214	1.204277183876087	0.4188790204786391	1.382464534355544	0	0	0
3.653171155516942	0.8552113334772214	1.204277183876087	0.4188790204786391	1.383146895922353	0	0	0
3.657341442224153	0.8552113334772214	1.204277183876087	0.4188790204786391	1.383829257489162	0	0	0
3.661511728931364	0.8552113334772214	1.204277183876087	0.4188790204786391	1.384511619055971	0	0	0
3.665682015638575	0.8552113334772214	1.204277183876087	0.4188790204786391	1.38519398062278	0	0	0
3.669852302345786	0.8552113334772214	1.204277183876087	0.4188790204786391	1.385876342189589	0	0	0
3.674022589052997	0.8552113334772214	1.204277183876087	0.4188790204786391	1.386558703756399	0	0	0
3.678192875760208	0.8552113334772214	1.204277183876087	0.4188790204786391	1.387241065323208	0	0	0
3.68236316246742	0.8552113334772214	1.204277183876087	0.4188790204786391	1.387923426890017	0	0	0
3.686533449174631	0.8552113334772214	1.204277183876087	0.4188790204786391	1.388605788456827	0	0	0
3.690703735881842	0.8552113334772214	1.204277183876087	0.4188790204786391	1.389288150023636	0	0	0
3.694874022589053	0.8552113334772214	1.204277183876087	0.4188790204786391	1.389970511590445	0	0	0
3.699044309296264	0.8552113334772214	1.204277183876087	0.4188790204786391	1.390652873157254	0	0	0
3.703214596003475	0.8552113334772214	1.204277183876087	0.4188790204786391	1.391335234724064	0	0	0
3.707384882710687	0.8552113334772214	1.204277183876087	0.4188790204786391	1.392017596290873	0	0	0
3.711555169417898	0.8552113334772214	1.204277183876087	0.4188790204786391	1.392699957857682	0	0	0
3.715725456125109	0.8552113334772214	1.204277183876087	0.4188790204786391	1.393382319424491	0	0	0
3.71989574283232	0.8552113334772214	1.204277183876087	0.4188790204786391	1.3940646809913	0	0	0
3.724066029539531	0.8552113334772214	1.204277183876087	0.4188790204786391	1.39474704255811	0	0	0
3.728236316246742	0.8552113334772214	1.204277183876087	0.4188790204786391	1.395429404124919	0	0	0
3.732406602953953	0.8552113334772214	1.204277183876087	0.4188790204786391	1.396111765691728	0	0	0
3.736576889661164	0.8552113334772214	1.204277183876087	0.4188790204786391	1.396794127258538	0	0	0
3.740747176368375	0.8552113334772214	1.204277183876087	0.4188790204786391	1.397476488825347	0	0	0
3.744917463075586	0.8552113334772214	1.204277183876087	0.4188790204786391	1.398158850392156	0	0	0
3.749087749782797	0.8552113334772214	1.204277183876087	0.4188790204786391	1.398841211958965	0	0	0
3.753258036490009	0.8552113334772214	1.204277183876087	0.4188790204786391	1.399523573525775	0	0	0
3.75742832319722	0.8552113334772214	1.204277183876087	0.4188790204786391	1.400205935092584	0	0	0
3.761598609904431	0.8552113334772214	1.204277183876087	0.4188790204786391	1.400888296659393	0	0	0
3.765768896611642	0.8552113334772214	1.204277183876087	0.4188790204786391	1.401570658226202	0	0	0
3.769939183318853	0.8552113334772214	1.204277183876087	0.4188790204786391	1.402253019793012	0	0	0
3.774109470026064	0.8552113334772214	1.204277183876087	0.4188790204786391	1.402935381359821	0	0	0
3.778279756733276	0.8552113334772214	1.204277183876087	0.4188790204786391	1.40361774292663	0	0	0
3.782450043440487	0.8552113334772214	1.204277183876087	0.4188790204786391	1.404300104493439	0	0	0
3.786620330147698	0.8552113334772214	1.204277183876087	0.4188790204786391	1.404982466060249	0	0	0
3.790790616854909	0.8552113334772214	1.204277183876087	0.4188790204786391	1.405664827627058	0	0	0
3.79496090356212	0.8552113334772214	1.204277183876087	0.4188790204786391	1.406347189193867	0	0	0
3.799131190269331	0.8552113334772214	1.204277183876087	0.4188790204786391	1.407029550760676	0	0	0
3.803301476976542	0.8552113334772214	1.204277183876087	0.4188790204786391	1.407711912327485	0	0	0
3.807471763683753	0.8552113334772214	1.204277183876087	0.4188790204786391	1.408394273894295	0	0	0
3.811642050390964	0.8552113334772214	1.204277183876087	0.4188790204786391	1.409076635461104	0	0	0
3.815812337098176	0.8552113334772214	1.204277183876087	0.4188790204786391	1.409758997027913	0	0	0
3.819982623805387	0.8552113334772214	1.204277183876087	0.4188790204786391	1.410441358594723	0	0	0
3.824152910512598	0.8552113334772214	1.204277183876087	0.4188790204786391	1.411123720161532	0	0	0
3.828323197219809	0.8552113334772214	1.204277183876087	0.4188790204786391	1.411806081728341	0	0	0
3.83249348392702	0.8552113334772214	1.204277183876087	0.4188790204786391	1.41248844329515	0	0	0
3.836663770634231	0.8552113334772214	1.204277183876087	0.4188790204786391	1.41317080486196	0	0	0
3.840834057341442	0.8552113334772214	1.204277183876087	0.4188790204786391	1.413853166428769	0	0	0
3.845004344048653	0.8552113334772214	1.204277183876087	0.4188790204786391	1.414535527995578	0	0	0
3.849174630755865	0.8552113334772214	1.204277183876087	0.4188790204786391	1.415217889562387	0	0	0
3.853344917463076	0.8552113334772214	1.204277183876087	0.4188790204786391	1.415900251129197	0	0	0
3.857515204170287	0.8552113334772214	1.204277183876087	0.4188790204786391	1.416582612696006	0	0	0
3.861685490877498	0.8552113334772214	1.204277183876087	0.4188790204786391	1.417264974262815	0	0	0
3.865855777584709	0.8552113334772214	1.204277183876087	0.4188790204786391	1.417947335829624	0	0	0
3.87002606429192	0.8552113334772214	1.204277183876087	0.4188790204786391	1.418629697396434	0	0	0
3.874196350999132	0.8552113334772214	1.204277183876087	0.4188790204786391	1.419312058963243	0	0	0
3.878366637706343	0.8552113334772214	1.204277183876087	0.4188790204786391	1.419994420530052	0	0	0
3.882536924413554	0.8552113334772214	1.204277183876087	0.4188790204786391	1.420676782096861	0	0	0
3.886707211120765	0.8552113334772214	1.204277183876087	0.4188790204786391	1.421359143663671	0	0	0
3.890877497827976	0.8552113334772214	1.204277183876087	0.4188790204786391	1.42204150523048	0	0	0
3.895047784535187	0.8552113334772214	1.204277183876087	0.4188790204786391	1.422723866797289	0	0	0
3.899218071242398	0.8552113334772214	1.204277183876087	0.4188790204786391	1.423406228364098	0	0	0
3.903388357949609	0.8552113334772214	1.204277183876087	0.4188790204786391	1.424088589930908	0	0	0
3.90755864465682	0.8552113334772214	1.204277183876087	0.4188790204786391	1.424770951497717	0	0	0
3.911728931364031	0.8552113334772214	1.204277183876087	0.4188790204786391	1.425453313064526	0	0	0
3.915899218071242	0.8552113334772214	1.204277183876087	0.4188790204786391	1.426135674631335	0	0	0
3.920069504778454	0.8552113334772214	1.204277183876087	0.4188790204786391	1.426818036198145	0	0	0
3.924239791485665	0.8552113334772214	1.204277183876087	0.4188790204786391	1.427500397764954	0	0	0
3.928410078192876	0.8552113334772214	1.204277183876087	0.4188790204786391	1.428182759331763	0	0	0
3.932580364900087	0.8552113334772214	1.204277183876087	0.4188790204786391	1.428865120898572	0	0	0
3.936750651607298	0.8552113334772214	1.204277183876087	0.4188790204786391	1.429547482465382	0	0	0
3.940920938314509	0.8552113334772214	1.204277183876087	0.4188790204786391	1.430229844032191	0	0	0
3.94509122502172	0.8552113334772214	1.204277183876087	0.4188790204786391	1.430912205599	0	0	0
3.949261511728932	0.8552113334772214	1.204277183876087	0.4188790204786391	1.431594567165809	0	0	0
3.953431798436143	0.8552113334772214	1.204277183876087	0.4188790204786391	1.432276928732619	0	0	0
3.957602085143354	0.8552113334772214	1.204277183876087	0.4188790204786391	1.432959290299428	0	0	0
3.961772371850565	0.8552113334772214	1.204277183876087	0.4188790204786391	1.433641651866237	0	0	0
3.965942658557776	0.8552113334772214	1.204277183876087	0.4188790204786391	1.434324013433046	0	0	0
3.970112945264987	0.8552113334772214	1.204277183876087	0.4188790204786391	1.435006374999856	0	0	0
3.974283231972198	0.8552113334772214	1.204277183876087	0.4188790204786391	1.435688736566665	0	0	0
3.978453518679409	0.8552113334772214	1.204277183876087	0.4188790204786391	1.436371098133474	0	0	0
3.98262380538662	0.8552113334772214	1.204277183876087	0.4188790204786391	1.437053459700283	0	0	0
3.986794092093831	0.8552113334772214	1.204277183876087	0.4188790204786391	1.437735821267093	0	0	0
3.990964378801042	0.8552113334772214	1.204277183876087	0.4188790204786391	1.438418182833902	0	0	0
3.995134665508254	0.8552113334772214	1.204277183876087	0.4188790204786391	1.439100544400711	0	0	0
3.999304952215465	0.8552113334772214	1.204277183876087	0.4188790204786391	1.43978290596752	0	0	0
4.003475238922676	0.8552113334772214	1.204277183876087	0.4188790204786391	1.44046526753433	0	0	0
4.007645525629887	0.8552113334772214	1.204277183876087	0.4188790204786391	1.441147629101139	0	0	0
4.011815812337098	0.8552113334772214	1.204277183876087	0.4188790204786391	1.441829990667948	0	0	0
4.015986099044309	0.8552113334772214	1.204277183876087	0.4188790204786391	1.442512352234757	0	0	0
4.020156385751521	0.8552113334772214	1.204277183876087	0.4188790204786391	1.443194713801567	0	0	0
4.024326672458732	0.8552113334772214	1.204277183876087	0.4188790204786391	1.443877075368376	0	0	0
4.028496959165943	0.8552113334772214	1.204277183876087	0.4188790204786391	1.444559436935185	0	0	0
4.032667245873154	0.8552113334772214	1.204277183876087	0.4188790204786391	1.445241798501994	0	0	0
4.036837532580365	0.8552113334772214	1.204277183876087	0.4188790204786391	1.445924160068804	0	0	0
4.041007819287576	0.8552113334772214	1.204277183876087	0.4188790204786391	1.446606521635613	0	0	0
4.045178105994787	0.8552113334772214	1.204277183876087	0.4188790204786391	1.447288883202422	0	0	0
4.049348392701998	0.8552113334772214	1.204277183876087	0.4188790204786391	1.447971244769231	0	0	0
4.053518679409209	0.8552113334772214	1.204277183876087	0.4188790204786391	1.448653606336041	0	0	0
4.05768896611642	0.8552113334772214	1.204277183876087	0.4188790204786391	1.44933596790285	0	0	0
4.061859252823631	0.8552113334772214	1.204277183876087	0.4188790204786391	1.450018329469659	0	0	0
4.066029539530843	0.8552113334772214	1.204277183876087	0.4188790204786391	1.450700691036468	0	0	0
4.070199826238054	0.8552113334772214	1.204277183876087	0.4188790204786391	1.451383052603278	0	0	0
4.074370112945265	0.8552113334772214	1.204277183876087	0.4188790204786391	1.452065414170087	0	0	0
4.078540399652476	0.8552113334772214	1.204277183876087	0.4188790204786391	1.452747775736896	0	0	0
4.082710686359687	0.8552113334772214	1.204277183876087	0.4188790204786391	1.453430137303705	0	0	0
4.086880973066898	0.8552113334772214	1.204277183876087	0.4188790204786391	1.454112498870515	0	0	0
4.09105125977411	0.8552113334772214	1.204277183876087	0.4188790204786391	1.454794860437324	0	0	0
4.095221546481321	0.8552113334772214	1.204277183876087	0.4188790204786391	1.455477222004133	0	0	0
4.099391833188532	0.8552113334772214	1.204277183876087	0.4188790204786391	1.456159583570942	0	0	0
4.103562119895743	0.8552113334772214	1.204277183876087	0.4188790204786391	1.456841945137752	0	0	0
4.107732406602954	0.8552113334772214	1.204277183876087	0.4188790204786391	1.457524306704561	0	0	0
